<?xml version="1.0" standalone="no"?>
<!DOCTYPE svg PUBLIC "-//W3C//DTD SVG 20010904//EN"
 "http://www.w3.org/TR/2001/REC-SVG-20010904/DTD/svg10.dtd">
<svg version="1.0" xmlns="http://www.w3.org/2000/svg"
 width="500.000000pt" height="500.000000pt" viewBox="0 0 500.000000 500.000000"
 preserveAspectRatio="xMidYMid meet">

<g transform="translate(0.000000,500.000000) scale(0.100000,-0.100000)"
fill="#000000" stroke="none">
<path d="M1395 4359 c-180 -23 -331 -95 -451 -214 -117 -116 -170 -212 -212
-385 -14 -57 -16 -194 -19 -1055 -5 -1074 -1 -1187 43 -1325 98 -311 342 -496
698 -530 145 -13 1931 -13 2086 0 145 13 211 31 329 88 154 74 282 215 349
382 57 142 55 107 59 1230 4 1083 2 1169 -38 1293 -82 252 -267 424 -534 499
l-80 22 -1080 2 c-594 1 -1111 -2 -1150 -7z m1382 -528 c186 -92 224 -114 238
-140 13 -27 15 -79 13 -406 l-3 -375 401 0 c458 0 477 -2 538 -70 19 -22 39
-52 43 -67 5 -16 8 -221 8 -458 0 -398 -1 -434 -19 -480 -16 -42 -59 -91 -275
-308 -141 -142 -274 -268 -296 -280 -39 -22 -50 -22 -500 -25 -304 -2 -472 0
-496 7 -50 15 -86 45 -110 93 -20 39 -21 56 -22 742 -2 757 -5 718 52 779 38
42 73 57 146 64 l65 6 0 471 c-1 520 -1 521 -60 542 l-35 12 45 1 c38 1 80
-16 267 -108z m-1490 -468 c26 -20 113 -89 193 -152 80 -63 188 -149 240 -190
52 -42 127 -103 165 -136 39 -33 91 -78 117 -99 26 -21 45 -43 41 -49 -3 -6
-1 -7 5 -3 7 4 43 -18 87 -54 76 -62 110 -99 63 -68 -20 13 -28 14 -39 5 -9
-8 -8 -6 1 7 14 18 13 19 -3 13 -10 -4 -16 -3 -13 2 3 5 -15 26 -40 46 -37 30
-48 35 -55 24 -5 -8 -9 -17 -9 -21 0 -5 -5 -8 -11 -8 -8 0 -8 4 1 15 18 21
-25 91 -46 74 -8 -6 -14 -14 -14 -16 0 -3 6 0 14 6 11 9 15 8 21 -6 13 -28 14
-44 4 -37 -5 3 -7 10 -4 15 4 5 -1 9 -9 9 -8 0 -17 -4 -20 -9 -8 -13 -55 -20
-59 -8 -1 5 -17 2 -36 -8 -25 -12 -36 -14 -41 -5 -9 15 -77 3 -84 -16 -8 -20
-76 -19 -76 1 0 8 7 15 15 15 8 0 15 4 15 9 0 5 3 16 6 25 5 12 0 16 -20 16
-14 0 -26 4 -26 9 0 9 -57 71 -65 71 -3 0 -5 -7 -5 -15 0 -19 -14 -19 -33 -1
-7 8 -31 14 -52 14 -25 0 -41 6 -47 16 -13 23 -31 20 -25 -4 3 -11 2 -22 -3
-25 -4 -3 -7 -19 -5 -37 2 -30 6 -33 33 -33 17 0 37 -6 44 -13 11 -11 10 -13
-2 -10 -10 2 -14 -4 -13 -17 1 -17 -2 -16 -23 8 -13 15 -24 25 -24 21 0 -3 -7
-1 -15 6 -8 7 -12 17 -8 23 4 6 0 8 -10 4 -18 -7 -30 7 -34 38 -3 19 -2 19 16
-2 11 -13 23 -23 27 -23 4 0 3 5 -3 11 -6 6 -10 17 -9 23 2 6 1 7 -2 3 -2 -4
-10 -3 -18 4 -8 6 -14 8 -14 4 0 -4 -8 -1 -17 6 -17 13 -17 13 -3 -6 15 -19
14 -19 -10 -4 -14 9 -26 26 -28 38 -2 11 -8 21 -13 21 -6 0 -7 -6 -3 -12 4 -7
-9 2 -29 21 -34 32 -35 35 -19 50 10 9 13 13 8 9 -14 -11 -28 -10 -21 2 3 6 1
10 -5 10 -6 0 -8 5 -5 10 3 6 1 10 -4 10 -6 0 -11 -4 -11 -10 0 -5 -5 -10 -11
-10 -5 0 -7 5 -4 10 3 6 -1 10 -9 10 -9 0 -16 5 -16 11 0 5 5 7 12 3 7 -4 8
-3 4 4 -4 6 -13 9 -20 6 -7 -3 -29 14 -49 36 -20 23 -52 54 -73 71 -20 16 -34
29 -30 29 3 0 0 10 -8 23 -16 24 -11 71 7 60 6 -4 8 0 4 9 -4 11 16 36 65 80
102 90 124 95 195 41z m248 -693 c-10 -16 -35 7 -28 27 5 13 7 13 21 0 8 -8
11 -20 7 -27z m561 11 c19 -15 21 -21 11 -30 -11 -8 -19 -5 -35 12 -12 13 -19
27 -15 30 9 10 12 9 39 -12z m-500 -37 c2 -12 0 -14 -9 -5 -6 6 -12 18 -13 27
-2 12 0 14 9 5 6 -6 12 -18 13 -27z m398 20 c5 -12 2 -15 -10 -10 -8 3 -20 6
-25 6 -5 0 -9 5 -9 10 0 16 37 11 44 -6z m-438 -3 c-3 -4 3 -16 14 -26 11 -10
20 -22 20 -27 0 -5 -11 3 -24 19 -21 24 -25 43 -10 43 3 0 3 -4 0 -9z m574
-14 c0 -2 -10 -12 -22 -23 l-23 -19 19 23 c18 21 26 27 26 19z m-455 -76 c0
-16 -3 -27 -7 -24 -13 7 -9 -12 5 -27 10 -12 9 -12 -5 -1 -16 12 -19 46 -4 69
10 17 12 15 11 -17z"/>
<path d="M2698 2913 c56 -2 148 -2 205 0 56 1 10 3 -103 3 -113 0 -159 -2
-102 -3z"/>
<path d="M2586 2474 c-9 -8 -16 -22 -16 -29 0 -7 7 -21 16 -29 14 -14 78 -16
560 -16 334 0 552 4 563 10 29 15 33 38 11 60 -19 19 -35 20 -569 20 -486 0
-551 -2 -565 -16z"/>
<path d="M2582 2168 c-16 -16 -15 -43 2 -57 9 -8 169 -10 577 -9 l564 3 3 29
c2 16 -2 32 -10 37 -22 14 -1122 11 -1136 -3z"/>
<path d="M2574 1843 c-13 -51 1 -53 332 -53 262 0 305 2 318 16 9 8 16 21 16
28 0 34 -21 36 -342 36 l-318 0 -6 -27z"/>
<path d="M1146 3051 c-3 -5 2 -15 12 -22 15 -12 16 -12 5 2 -7 9 -10 19 -6 22
3 4 4 7 0 7 -3 0 -8 -4 -11 -9z"/>
<path d="M1720 2940 c-9 -6 -10 -10 -3 -10 6 0 15 5 18 10 8 12 4 12 -15 0z"/>
<path d="M1867 2856 c-16 -12 -16 -14 -2 -20 11 -4 14 -2 9 6 -5 7 -2 9 9 5
11 -4 14 -2 10 9 -3 7 -6 14 -7 14 0 0 -9 -7 -19 -14z"/>
<path d="M1674 2818 c3 -13 6 -28 6 -34 0 -8 11 -8 40 -1 41 11 54 27 23 27
-10 0 -31 7 -47 15 -28 15 -28 14 -22 -7z"/>
<path d="M1925 2791 c-4 -7 1 -8 12 -4 16 6 17 5 3 -13 -14 -17 -13 -18 1 -7
9 7 18 10 21 7 3 -3 9 -1 13 5 3 6 2 11 -4 11 -5 0 -16 3 -24 6 -8 3 -18 1
-22 -5z"/>
<path d="M1760 2770 c0 -6 7 -10 15 -10 8 0 15 2 15 4 0 2 -7 6 -15 10 -8 3
-15 1 -15 -4z"/>
<path d="M1858 2763 c6 -2 18 -2 25 0 6 3 1 5 -13 5 -14 0 -19 -2 -12 -5z"/>
<path d="M1475 2740 c-3 -5 -2 -10 4 -10 5 0 13 5 16 10 3 6 2 10 -4 10 -5 0
-13 -4 -16 -10z"/>
<path d="M2076 2675 c4 -8 11 -15 16 -15 6 0 5 6 -2 15 -7 8 -14 15 -16 15 -2
0 -1 -7 2 -15z"/>
</g>
</svg>
